<?xml version="1.0" encoding="utf-8"?>
<!-- Generator: Adobe Illustrator 27.5.0, SVG Export Plug-In . SVG Version: 6.00 Build 0)  -->
<svg version="1.1" id="Layer_1" xmlns="http://www.w3.org/2000/svg" xmlns:xlink="http://www.w3.org/1999/xlink" x="0px" y="0px"
	 viewBox="0 0 40 40" style="enable-background:new 0 0 40 40;" xml:space="preserve">
<style type="text/css">
	.st0{fill-rule:evenodd;clip-rule:evenodd;fill:#EC3767;}
</style>
<g>
	<path class="st0" d="M19.6,5.5c0.8,0,1.6,0.4,2.1,1.2L22,7.2c4.4,7.8,8,16,10.7,24.3c0.4,1.1-0.2,2-1,2.5C31,34.5,30,34.5,29.1,34
		l-7.8-5c-0.9-0.6-2-0.6-2.8,0l-7.6,4.8c-0.9,0.5-1.9,0.4-2.6,0c-0.7-0.4-1.3-1.3-1-2.4C9.7,23,13.1,15,17.2,7.2l0.3-0.5
		C17.9,5.9,18.8,5.5,19.6,5.5z M19.6,8l-0.2,0.4c-4,7.4-7.2,15.1-9.6,23.1l7.4-4.6c1.6-1,3.9-1,5.5,0.1l7.4,4.8
		c-2.6-8-6.1-15.7-10.3-23.2L19.6,8z"/>
</g>
</svg>
