<?xml version="1.0" encoding="utf-8"?>
<!-- Generator: Adobe Illustrator 27.5.0, SVG Export Plug-In . SVG Version: 6.00 Build 0)  -->
<svg version="1.1" id="Layer_1" xmlns="http://www.w3.org/2000/svg" xmlns:xlink="http://www.w3.org/1999/xlink" x="0px" y="0px"
	 viewBox="0 0 40 40" style="enable-background:new 0 0 40 40;" xml:space="preserve">
<style type="text/css">
	.st0{fill-rule:evenodd;clip-rule:evenodd;fill:#EC3767;}
	.st1{fill:#EC3767;}
</style>
<g>
	<path class="st0" d="M19.3,31.1c0.2,0.1,0.4,0.2,0.7,0.2c0.2,0,0.4-0.1,0.7-0.2l1.9-1.1c3.7-2.2,8.2-2.6,12.1-1
		c1.5,0.6,3.1-0.5,3.1-2.1V7.7c0-1-0.6-1.8-1.5-2.2c-5.1-2-10.9-1.6-15.6,1.3L20,7.1l-0.6-0.4C14.6,3.9,8.9,3.5,3.7,5.5
		C2.8,5.9,2.3,6.7,2.3,7.7v19.2c0,1.6,1.6,2.7,3.1,2.1c4-1.6,8.5-1.2,12.1,1L19.3,31.1z M4.7,7.8v18.8c4.6-1.7,9.8-1.3,14,1.3l0,0
		V9.3l-0.7-0.4C14.1,6.5,9.1,6.1,4.7,7.8z M21.3,27.8L21.3,27.8l0-18.6l0.7-0.4c4-2.4,9-2.8,13.4-1.1v18.8
		C30.6,24.8,25.5,25.3,21.3,27.8z"/>
	<path class="st1" d="M15.5,31.8c-3.3-1.9-7.5-1.9-10.8,0l-0.2,0.1c-0.6,0.3-0.8,1.1-0.4,1.7c0.3,0.6,1.1,0.8,1.7,0.4l0.2-0.1
		c2.6-1.5,5.7-1.5,8.3,0l1.8,1c2.4,1.4,5.5,1.4,7.9,0l1.8-1c2.6-1.5,5.7-1.5,8.3,0l0.2,0.1c0.6,0.3,1.3,0.1,1.7-0.4
		c0.3-0.6,0.1-1.3-0.4-1.7l-0.2-0.1c-3.3-1.9-7.5-1.9-10.8,0l-1.8,1c-1.7,1-3.7,1-5.4,0L15.5,31.8z"/>
</g>
</svg>
