<?xml version="1.0" encoding="utf-8"?>
<!-- Generator: Adobe Illustrator 27.5.0, SVG Export Plug-In . SVG Version: 6.00 Build 0)  -->
<svg version="1.1" id="Layer_1" xmlns="http://www.w3.org/2000/svg" xmlns:xlink="http://www.w3.org/1999/xlink" x="0px" y="0px"
	 viewBox="0 0 40 40" style="enable-background:new 0 0 40 40;" xml:space="preserve">
<style type="text/css">
	.st0{fill:#EC3767;}
</style>
<g>
	<g>
		<path class="st0" d="M20,31.2c-6.2,0-11.2-5-11.2-11.2c0-6.2,5-11.2,11.2-11.2s11.2,5,11.2,11.2C31.2,26.2,26.2,31.2,20,31.2z
			 M20,11.5c-4.7,0-8.5,3.8-8.5,8.5s3.8,8.5,8.5,8.5s8.5-3.8,8.5-8.5S24.7,11.5,20,11.5z"/>
	</g>
	<g>
		<path class="st0" d="M20,24.6c-2.6,0-4.6-2.1-4.6-4.6s2.1-4.6,4.6-4.6s4.6,2.1,4.6,4.6S22.6,24.6,20,24.6z M20,18
			c-1.1,0-2,0.9-2,2c0,1.1,0.9,2,2,2s2-0.9,2-2C22,18.9,21.1,18,20,18z"/>
	</g>
	<g>
		<path class="st0" d="M20,37.6c-9.7,0-17.6-7.9-17.6-17.6c0-9.7,7.9-17.6,17.6-17.6S37.6,10.3,37.6,20C37.6,29.7,29.7,37.6,20,37.6
			z M20,5C11.7,5,5,11.7,5,20s6.7,15,15,15s15-6.7,15-15S28.3,5,20,5z"/>
	</g>
</g>
</svg>
