<?xml version="1.0" encoding="utf-8"?>
<!-- Generator: Adobe Illustrator 27.5.0, SVG Export Plug-In . SVG Version: 6.00 Build 0)  -->
<svg version="1.1" id="Layer_1" xmlns="http://www.w3.org/2000/svg" xmlns:xlink="http://www.w3.org/1999/xlink" x="0px" y="0px"
	 viewBox="0 0 40 40" style="enable-background:new 0 0 40 40;" xml:space="preserve">
<style type="text/css">
	.st0{fill:#EC3767;}
</style>
<g>
	<path class="st0" d="M14.9,9c0.6,0.6,1.5,0.6,2.1,0l1.4-1.4v10.9H7.6L9,17c0.6-0.6,0.6-1.5,0-2.1c-0.6-0.6-1.5-0.6-2.1,0l-4,4
		c-0.6,0.6-0.6,1.5,0,2.1l4,4c0.6,0.6,1.5,0.6,2.1,0c0.6-0.6,0.6-1.5,0-2.1l-1.4-1.4h10.9v10.9L17,31c-0.6-0.6-1.5-0.6-2.1,0
		c-0.6,0.6-0.6,1.5,0,2.1l4,4c0.6,0.6,1.5,0.6,2.1,0l4-4c0.6-0.6,0.6-1.5,0-2.1c-0.6-0.6-1.5-0.6-2.1,0l-1.4,1.4V21.5h10.9L31,23
		c-0.6,0.6-0.6,1.5,0,2.1c0.6,0.6,1.5,0.6,2.1,0l4-4c0.6-0.6,0.6-1.5,0-2.1l-4-4c-0.6-0.6-1.5-0.6-2.1,0c-0.6,0.6-0.6,1.5,0,2.1
		l1.4,1.4H21.5V7.6L23,9c0.6,0.6,1.5,0.6,2.1,0c0.6-0.6,0.6-1.5,0-2.1l-4-4c-0.6-0.6-1.5-0.6-2.1,0l-4,4C14.3,7.5,14.3,8.4,14.9,9z"
		/>
</g>
</svg>
