<?xml version="1.0" encoding="utf-8"?>
<!-- Generator: Adobe Illustrator 27.5.0, SVG Export Plug-In . SVG Version: 6.00 Build 0)  -->
<svg version="1.1" id="Layer_1" xmlns="http://www.w3.org/2000/svg" xmlns:xlink="http://www.w3.org/1999/xlink" x="0px" y="0px"
	 viewBox="0 0 500 200" style="enable-background:new 0 0 500 200;" xml:space="preserve">
<style type="text/css">
	.st0{fill:#FFFFFF;}
	.st1{fill:#F0005A;}
</style>
<g>
	<path class="st0" d="M201.4,98.5c-0.1-1.7-0.1-3.2-0.1-4.6v-9.5c0-0.5-0.2-0.8-0.7-0.8H186c-0.5,0-0.8,0.3-0.8,0.8V89
		c0,0.5,0.3,0.8,0.8,0.8h6.3v1.4c0,1.6-0.5,2.9-1.6,3.7c-1.1,0.9-2.7,1.3-4.8,1.3c-2.3,0-4.1-0.6-5.3-1.7s-1.8-3-1.8-5.6v-7.9
		c0-2.6,0.6-4.4,1.7-5.6s2.9-1.7,5.1-1.7c1.5,0,2.8,0.2,3.7,0.6s1.6,0.9,2,1.6c0.4,0.7,0.6,1.5,0.6,2.4c0,0.6,0.2,0.9,0.7,0.9
		l7.9,0.1c0.5,0,0.7-0.3,0.8-0.8c0.3-2.4-0.1-4.5-1.2-6.4c-1.1-1.9-2.9-3.5-5.3-4.6s-5.5-1.7-9.3-1.7c-5,0-9,1.2-11.8,3.7
		s-4.3,6.2-4.3,11.2v8.8c0,3.3,0.6,6.1,1.9,8.3s3,3.9,5.2,5c2.2,1.1,4.7,1.7,7.6,1.7c1.7,0,3.2-0.2,4.4-0.7s2.2-1,3.1-1.8
		s1.6-1.6,2.1-2.5h0.1c0,0.5,0.1,1.1,0.1,1.8c0,0.7,0.1,1.2,0.2,1.7c0.1,0.3,0.2,0.5,0.3,0.6c0.1,0.1,0.3,0.2,0.5,0.2h6.3
		c0.2,0,0.4-0.1,0.6-0.2c0.2-0.2,0.2-0.4,0.1-0.6C201.6,101.6,201.5,100.1,201.4,98.5z"/>
	<path class="st0" d="M230.3,95.5h-14.1V67.2c0-0.5-0.2-0.8-0.6-0.8h-8c-0.5,0-0.8,0.3-0.8,0.8v35.7c0,0.5,0.3,0.8,0.8,0.8h22.7
		c0.5,0,0.7-0.3,0.7-0.8v-6.6C231.1,95.8,230.8,95.5,230.3,95.5z"/>
	<path class="st0" d="M258.4,66.4h-23.7c-0.5,0-0.8,0.3-0.8,0.8v35.7c0,0.5,0.3,0.8,0.8,0.8h23.7c0.5,0,0.7-0.3,0.7-0.8v-6.6
		c0-0.5-0.2-0.8-0.7-0.8h-15.1v-6.8h13.7c0.5,0,0.7-0.3,0.7-0.8v-6.1c0-0.5-0.2-0.8-0.7-0.8h-13.7v-6.6h15.1c0.5,0,0.7-0.3,0.7-0.8
		v-6.6C259.2,66.6,258.9,66.4,258.4,66.4z"/>
	<path class="st0" d="M295,66.4h-7.5c-0.5,0-0.7,0.3-0.7,0.8v13.7c0,0.9,0,2.1,0.1,3.3c0,1.3,0.1,2.5,0.2,3.8
		c0.1,1.2,0.2,2.4,0.3,3.4h-0.2c-0.3-0.9-0.7-2-1.2-3.1c-0.5-1.2-1-2.4-1.6-3.6c-0.6-1.2-1.1-2.4-1.6-3.4l-7.2-14.3
		c-0.2-0.4-0.5-0.6-0.9-0.6h-10c-0.5,0-0.8,0.3-0.8,0.8v35.7c0,0.5,0.3,0.8,0.8,0.8h7.5c0.5,0,0.8-0.3,0.8-0.8v-13
		c0-1.1,0-2.2,0-3.5s0-2.6-0.1-3.8c0-1.3-0.1-2.4-0.2-3.4h0.2c0.4,0.9,0.9,2,1.4,3.3c0.5,1.2,1,2.5,1.5,3.7s1,2.4,1.6,3.4l6.8,13.6
		c0.2,0.4,0.5,0.6,0.9,0.6h10c0.5,0,0.8-0.3,0.8-0.8V67.2C295.8,66.6,295.5,66.4,295,66.4z"/>
	<path class="st0" d="M332.2,66.4h-7.5c-0.5,0-0.7,0.3-0.7,0.8v13.7c0,0.9,0,2.1,0.1,3.3c0,1.3,0.1,2.5,0.2,3.8
		c0.1,1.2,0.2,2.4,0.3,3.4h-0.2c-0.3-0.9-0.7-2-1.2-3.1c-0.5-1.2-1-2.4-1.6-3.6c-0.6-1.2-1.1-2.4-1.6-3.4l-7.2-14.3
		c-0.2-0.4-0.5-0.6-0.9-0.6h-10c-0.5,0-0.8,0.3-0.8,0.8v35.7c0,0.5,0.3,0.8,0.8,0.8h7.5c0.5,0,0.8-0.3,0.8-0.8v-13
		c0-1.1,0-2.2,0-3.5s0-2.6-0.1-3.8c0-1.3-0.1-2.4-0.2-3.4h0.2c0.4,0.9,0.9,2,1.4,3.3c0.5,1.2,1,2.5,1.5,3.7s1,2.4,1.6,3.4l6.8,13.6
		c0.2,0.4,0.5,0.6,0.9,0.6h10c0.5,0,0.8-0.3,0.8-0.8V67.2C333,66.6,332.8,66.4,332.2,66.4z"/>
	<path class="st0" d="M372.5,66.4h-23.7c-0.5,0-0.8,0.3-0.8,0.8v35.7c0,0.5,0.3,0.8,0.8,0.8h23.7c0.5,0,0.7-0.3,0.7-0.8v-6.6
		c0-0.5-0.2-0.8-0.7-0.8h-15.1v-6.8h13.7c0.5,0,0.7-0.3,0.7-0.8v-6.1c0-0.5-0.2-0.8-0.7-0.8h-13.7v-6.6h15.1c0.5,0,0.7-0.3,0.7-0.8
		v-6.6C373.2,66.6,373,66.4,372.5,66.4z"/>
	<path class="st0" d="M408.7,98.5c-0.1-1.7-0.1-3.2-0.1-4.6v-9.5c0-0.5-0.2-0.8-0.7-0.8h-14.5c-0.5,0-0.8,0.3-0.8,0.8V89
		c0,0.5,0.3,0.8,0.8,0.8h6.3v1.4c0,1.6-0.5,2.9-1.6,3.7c-1.1,0.9-2.7,1.3-4.8,1.3c-2.3,0-4.1-0.6-5.3-1.7s-1.8-3-1.8-5.6v-7.9
		c0-2.6,0.6-4.4,1.7-5.6s2.9-1.7,5.1-1.7c1.5,0,2.8,0.2,3.7,0.6s1.6,0.9,2,1.6c0.4,0.7,0.6,1.5,0.6,2.4c0,0.6,0.2,0.9,0.7,0.9
		l7.9,0.1c0.5,0,0.7-0.3,0.8-0.8c0.3-2.4-0.1-4.5-1.2-6.4c-1.1-1.9-2.9-3.5-5.3-4.6c-2.5-1.1-5.5-1.7-9.3-1.7c-5,0-9,1.2-11.8,3.7
		s-4.3,6.2-4.3,11.2v8.8c0,3.3,0.6,6.1,1.9,8.3s3,3.9,5.2,5c2.2,1.1,4.7,1.7,7.5,1.7c1.7,0,3.2-0.2,4.4-0.7s2.2-1,3.1-1.8
		s1.5-1.6,2.1-2.5h0.1c0,0.5,0.1,1.1,0.1,1.8c0,0.7,0.1,1.2,0.2,1.7c0.1,0.3,0.2,0.5,0.3,0.6c0.1,0.1,0.3,0.2,0.5,0.2h6.3
		c0.2,0,0.4-0.1,0.6-0.2s0.2-0.4,0.1-0.6C408.9,101.6,408.8,100.1,408.7,98.5z"/>
	<path class="st0" d="M434.4,67c-0.1-0.4-0.5-0.6-0.9-0.6h-10.1c-0.5,0-0.8,0.2-0.9,0.6l-11.9,35.8c-0.2,0.6,0,0.9,0.6,0.9h8.5
		c0.5,0,0.8-0.2,0.9-0.7l1.6-6h12.3l1.7,6c0.1,0.4,0.4,0.6,0.9,0.6h8.5c0.6,0,0.8-0.3,0.6-0.9L434.4,67z M424.2,89.7l2-7.2
		c0.4-1.4,0.7-2.7,1.1-4.1c0.3-1.4,0.7-2.7,1-4.1h0.1c0.3,1.3,0.6,2.7,1,4.1s0.7,2.7,1.1,4.1l2,7.2L424.2,89.7L424.2,89.7z"/>
	<path class="st0" d="M479.2,66.4h-7.5c-0.5,0-0.7,0.3-0.7,0.8v13.7c0,0.9,0,2.1,0.1,3.3c0,1.3,0.1,2.5,0.2,3.8
		c0.1,1.2,0.2,2.4,0.3,3.4h-0.2c-0.3-0.9-0.7-2-1.2-3.1c-0.5-1.2-1-2.4-1.6-3.6c-0.6-1.2-1.1-2.4-1.6-3.4l-7.2-14.3
		c-0.2-0.4-0.5-0.6-0.9-0.6h-10c-0.5,0-0.8,0.3-0.8,0.8v35.7c0,0.5,0.3,0.8,0.8,0.8h7.5c0.5,0,0.8-0.3,0.8-0.8v-13
		c0-1.1,0-2.2,0-3.5s0-2.6-0.1-3.8c0-1.3-0.1-2.4-0.2-3.4h0.2c0.4,0.9,0.9,2,1.4,3.3c0.5,1.2,1,2.5,1.5,3.7s1,2.4,1.6,3.4l6.8,13.6
		c0.2,0.4,0.5,0.6,0.9,0.6h10c0.5,0,0.8-0.3,0.8-0.8V67.2C480,66.6,479.8,66.4,479.2,66.4z"/>
</g>
<g>
	<path class="st0" d="M170.4,136.4l1.3-2.8c1.9,1.7,5.1,2.9,8.3,2.9c4.4,0,6.2-1.7,6.2-3.9c0-6.2-15.3-2.3-15.3-11.6
		c0-3.9,3-7.2,9.6-7.2c2.9,0,6,0.8,8.1,2.2l-1.2,2.9c-2.2-1.4-4.7-2.1-6.9-2.1c-4.3,0-6.1,1.8-6.1,4c0,6.2,15.3,2.3,15.3,11.6
		c0,3.9-3.1,7.2-9.8,7.2C176.2,139.6,172.4,138.3,170.4,136.4z"/>
	<path class="st0" d="M207.3,134.2l1.9,2.2c-1.7,2-4.3,3.1-7.5,3.1c-6.1,0-10.3-4.1-10.3-9.8c0-5.7,4-9.7,9.6-9.7
		c5.2,0,9.3,3.7,9.4,9.4l-15.1,2.9c1,2.6,3.4,4.1,6.6,4.1C204.1,136.5,205.9,135.7,207.3,134.2z M194.8,129.6v0.4l12.2-2.3
		c-0.6-2.7-2.9-4.7-6-4.7C197.4,123,194.8,125.6,194.8,129.6z"/>
	<path class="st0" d="M231.1,128.3v11h-3.4v-10.6c0-3.7-1.9-5.6-5.1-5.6c-3.7,0-6.1,2.2-6.1,6.3v9.8H213v-19.1h3.3v2.9
		c1.4-1.9,3.9-3.1,6.9-3.1C227.8,120.1,231.1,122.7,231.1,128.3z"/>
	<path class="st0" d="M234.3,114.3c0-1.3,1-2.3,2.3-2.3s2.3,1,2.3,2.2c0,1.3-1,2.3-2.3,2.3C235.3,116.6,234.3,115.6,234.3,114.3z
		 M234.9,120.2h3.4v19.1h-3.4V120.2z"/>
	<path class="st0" d="M241.4,129.8c0-5.7,4.2-9.7,9.9-9.7c5.7,0,9.9,4,9.9,9.7s-4.2,9.8-9.9,9.8
		C245.6,139.5,241.4,135.5,241.4,129.8z M257.7,129.8c0-4.1-2.7-6.7-6.4-6.7s-6.4,2.6-6.4,6.7c0,4.1,2.8,6.7,6.4,6.7
		C255,136.5,257.7,133.8,257.7,129.8z"/>
	<path class="st0" d="M274.2,120.1v3.3c-0.3,0-0.5,0-0.8,0c-3.7,0-6,2.3-6,6.4v9.5h-3.5v-19.1h3.3v3.2
		C268.5,121.2,270.8,120.1,274.2,120.1z"/>
	<path class="st0" d="M283.4,126.7c0-7.4,5.7-12.9,13.4-12.9c3.9,0,7.3,1.3,9.6,3.9L304,120c-1.9-2.1-4.3-3-7.1-3
		c-5.7,0-9.9,4.1-9.9,9.7c0,5.6,4.2,9.7,9.9,9.7c2.8,0,5.1-1,7.1-3l2.3,2.3c-2.3,2.6-5.7,4-9.6,4
		C289.1,139.6,283.4,134.2,283.4,126.7z"/>
	<path class="st0" d="M318.9,120.1v3.3c-0.3,0-0.5,0-0.8,0c-3.7,0-6,2.3-6,6.4v9.5h-3.5v-19.1h3.3v3.2
		C313.2,121.2,315.5,120.1,318.9,120.1z"/>
	<path class="st0" d="M335.5,134.2l1.9,2.2c-1.7,2-4.3,3.1-7.5,3.1c-6.1,0-10.3-4.1-10.3-9.8c0-5.7,4-9.7,9.6-9.7
		c5.2,0,9.3,3.7,9.4,9.4l-15.1,2.9c1,2.6,3.4,4.1,6.5,4.1C332.2,136.5,334.1,135.7,335.5,134.2z M323,129.6v0.4l12.2-2.3
		c-0.6-2.7-2.9-4.7-6-4.7C325.6,123,323,125.6,323,129.6z"/>
	<path class="st0" d="M359.8,120.2v19.1h-3.3v-3c-1.5,2.2-4,3.2-6.8,3.2c-5.6,0-9.6-3.9-9.6-9.8s4.1-9.7,9.6-9.7
		c2.7,0,5.1,1,6.7,3.1v-2.9H359.8z M356.3,129.8c0-4.1-2.8-6.7-6.4-6.7c-3.7,0-6.4,2.6-6.4,6.7c0,4.1,2.8,6.7,6.4,6.7
		C353.6,136.5,356.3,133.8,356.3,129.8z"/>
	<path class="st0" d="M373,138.2c-1,0.9-2.6,1.3-4.2,1.3c-3.9,0-6-2.1-6-6v-17.5h3.5v4.2h5.5v2.8h-5.5v10.3c0,2.1,1,3.2,3,3.2
		c1,0,2-0.3,2.7-0.9L373,138.2z"/>
	<path class="st0" d="M374.8,114.3c0-1.3,1-2.3,2.3-2.3s2.3,1,2.3,2.2c0,1.3-1,2.3-2.3,2.3C375.8,116.6,374.8,115.6,374.8,114.3z
		 M375.4,120.2h3.5v19.1h-3.5V120.2z"/>
	<path class="st0" d="M400.9,120.2l-8.4,19.1H389l-8.4-19.1h3.6l6.5,15.3l6.7-15.3H400.9z"/>
	<path class="st0" d="M416.3,134.2l1.9,2.2c-1.7,2-4.3,3.1-7.5,3.1c-6.1,0-10.3-4.1-10.3-9.8c0-5.7,4-9.7,9.6-9.7
		c5.2,0,9.3,3.7,9.4,9.4l-15.1,2.9c1,2.6,3.4,4.1,6.5,4.1C413,136.5,414.9,135.7,416.3,134.2z M403.8,129.6v0.4l12.2-2.3
		c-0.6-2.7-2.9-4.7-6-4.7C406.4,123,403.8,125.6,403.8,129.6z"/>
</g>
<g>
	<path class="st1" d="M74.4,109.6c4.3,10.4,16.3,15.4,26.8,11.1c6.7-2.8,11.1-8.7,12.3-15.3l16.7-6.9c0.3,3.5,0.1,7.1-0.6,10.5
		c-2.3,11.8-10.3,22.2-22.2,27.1c-18.9,7.8-40.6-1.2-48.4-20.1s1.2-40.6,20.1-48.4c15.3-6.3,32.5-1.6,42.7,10.5l21-8.7
		C127.5,46,97.4,36.1,70.7,47.1c-30.2,12.5-44.5,47.1-32,77.3s47.1,44.5,77.3,32c26.7-11.1,41-39.4,35.3-66.7
		c-0.7-3.6-1.8-7.1-3.3-10.6L74.4,109.6z"/>
	<path class="st1" d="M73.1,98.2l31.9-13.2c-5.6-3.9-12.9-4.9-19.6-2.1S74.3,91.5,73.1,98.2z"/>
</g>
</svg>
