<?xml version="1.0" encoding="utf-8"?>
<!-- Generator: Adobe Illustrator 27.5.0, SVG Export Plug-In . SVG Version: 6.00 Build 0)  -->
<svg version="1.1" id="Layer_1" xmlns="http://www.w3.org/2000/svg" xmlns:xlink="http://www.w3.org/1999/xlink" x="0px" y="0px"
	 viewBox="0 0 500 200" enable-background="new 0 0 500 200" xml:space="preserve">
<g>
	<path fill="#191027" d="M201.4,98.48c-0.06-1.65-0.08-3.18-0.08-4.59v-9.52c0-0.53-0.25-0.8-0.74-0.8h-14.53
		c-0.53,0-0.8,0.27-0.8,0.8v4.67c0,0.53,0.27,0.8,0.8,0.8h6.27v1.42c0,1.63-0.54,2.88-1.62,3.73c-1.08,0.86-2.67,1.28-4.76,1.28
		c-2.32,0-4.08-0.57-5.3-1.71c-1.22-1.14-1.82-3-1.82-5.59v-7.92c0-2.58,0.58-4.45,1.74-5.59c1.16-1.14,2.86-1.71,5.1-1.71
		c1.52,0,2.75,0.19,3.68,0.57c0.93,0.38,1.6,0.91,2.02,1.6c0.42,0.68,0.61,1.48,0.57,2.39c0,0.57,0.23,0.86,0.68,0.86l7.87,0.06
		c0.46,0,0.72-0.27,0.8-0.8c0.3-2.36-0.08-4.5-1.17-6.44c-1.08-1.94-2.85-3.48-5.3-4.62c-2.45-1.14-5.54-1.71-9.26-1.71
		c-5.02,0-8.96,1.24-11.83,3.71c-2.87,2.47-4.3,6.21-4.3,11.23v8.83c0,3.34,0.63,6.12,1.88,8.32c1.25,2.2,2.99,3.86,5.22,4.96
		c2.22,1.1,4.74,1.65,7.55,1.65c1.71,0,3.17-0.22,4.39-0.66c1.22-0.44,2.25-1.03,3.11-1.77c0.86-0.74,1.55-1.57,2.08-2.48h0.11
		c0.04,0.53,0.08,1.14,0.11,1.82c0.04,0.68,0.11,1.24,0.23,1.65c0.08,0.27,0.17,0.46,0.29,0.57c0.11,0.11,0.29,0.17,0.51,0.17h6.27
		c0.23,0,0.43-0.08,0.6-0.23c0.17-0.15,0.22-0.36,0.14-0.63C201.62,101.58,201.46,100.13,201.4,98.48z"/>
	<path fill="#191027" d="M230.33,95.54h-14.13V67.16c0-0.53-0.21-0.8-0.63-0.8h-7.98c-0.53,0-0.8,0.27-0.8,0.8v35.74
		c0,0.53,0.26,0.8,0.8,0.8h22.74c0.49,0,0.74-0.27,0.74-0.8v-6.55C231.07,95.81,230.82,95.54,230.33,95.54z"/>
	<path fill="#191027" d="M258.43,66.36h-23.71c-0.53,0-0.8,0.27-0.8,0.8v35.74c0,0.53,0.26,0.8,0.8,0.8h23.71
		c0.49,0,0.74-0.27,0.74-0.8v-6.55c0-0.53-0.25-0.8-0.74-0.8h-15.1v-6.78h13.74c0.49,0,0.74-0.27,0.74-0.8v-6.1
		c0-0.53-0.25-0.8-0.74-0.8h-13.74v-6.55h15.1c0.49,0,0.74-0.27,0.74-0.8v-6.55C259.17,66.63,258.92,66.36,258.43,66.36z"/>
	<path fill="#191027" d="M294.96,66.36h-7.52c-0.49,0-0.74,0.27-0.74,0.8v13.74c0,0.95,0.02,2.06,0.06,3.33
		c0.04,1.27,0.09,2.54,0.17,3.79c0.08,1.25,0.17,2.38,0.29,3.36h-0.17c-0.3-0.91-0.69-1.96-1.17-3.13c-0.48-1.18-1-2.37-1.57-3.59
		c-0.57-1.22-1.12-2.36-1.65-3.42l-7.18-14.31c-0.19-0.38-0.49-0.57-0.91-0.57h-9.97c-0.53,0-0.8,0.27-0.8,0.8v35.74
		c0,0.53,0.26,0.8,0.8,0.8h7.47c0.53,0,0.8-0.27,0.8-0.8v-13c0-1.06,0-2.24,0-3.53c0-1.29-0.02-2.57-0.06-3.85
		c-0.04-1.27-0.09-2.42-0.17-3.45h0.17c0.42,0.95,0.87,2.04,1.37,3.28c0.49,1.24,1,2.48,1.51,3.73c0.51,1.25,1.03,2.39,1.57,3.42
		l6.84,13.62c0.23,0.38,0.53,0.57,0.91,0.57h9.97c0.53,0,0.8-0.27,0.8-0.8V67.16C295.76,66.63,295.49,66.36,294.96,66.36z"/>
	<path fill="#191027" d="M332.24,66.36h-7.52c-0.49,0-0.74,0.27-0.74,0.8v13.74c0,0.95,0.02,2.06,0.06,3.33
		c0.04,1.27,0.09,2.54,0.17,3.79c0.08,1.25,0.17,2.38,0.29,3.36h-0.17c-0.3-0.91-0.69-1.96-1.17-3.13c-0.48-1.18-1-2.37-1.57-3.59
		c-0.57-1.22-1.12-2.36-1.65-3.42l-7.18-14.31c-0.19-0.38-0.49-0.57-0.91-0.57h-9.97c-0.53,0-0.8,0.27-0.8,0.8v35.74
		c0,0.53,0.26,0.8,0.8,0.8h7.47c0.53,0,0.8-0.27,0.8-0.8v-13c0-1.06,0-2.24,0-3.53c0-1.29-0.02-2.57-0.06-3.85
		c-0.04-1.27-0.09-2.42-0.17-3.45h0.17c0.42,0.95,0.87,2.04,1.37,3.28c0.49,1.24,1,2.48,1.51,3.73c0.51,1.25,1.03,2.39,1.57,3.42
		l6.84,13.62c0.23,0.38,0.53,0.57,0.91,0.57h9.97c0.53,0,0.8-0.27,0.8-0.8V67.16C333.04,66.63,332.77,66.36,332.24,66.36z"/>
	<path fill="#191027" d="M372.48,66.36h-23.71c-0.53,0-0.8,0.27-0.8,0.8v35.74c0,0.53,0.26,0.8,0.8,0.8h23.71
		c0.49,0,0.74-0.27,0.74-0.8v-6.55c0-0.53-0.25-0.8-0.74-0.8h-15.1v-6.78h13.74c0.49,0,0.74-0.27,0.74-0.8v-6.1
		c0-0.53-0.25-0.8-0.74-0.8h-13.74v-6.55h15.1c0.49,0,0.74-0.27,0.74-0.8v-6.55C373.22,66.63,372.97,66.36,372.48,66.36z"/>
	<path fill="#191027" d="M408.7,98.48c-0.06-1.65-0.08-3.18-0.08-4.59v-9.52c0-0.53-0.25-0.8-0.74-0.8h-14.53
		c-0.53,0-0.8,0.27-0.8,0.8v4.67c0,0.53,0.27,0.8,0.8,0.8h6.27v1.42c0,1.63-0.54,2.88-1.62,3.73c-1.08,0.86-2.67,1.28-4.76,1.28
		c-2.32,0-4.08-0.57-5.3-1.71c-1.22-1.14-1.82-3-1.82-5.59v-7.92c0-2.58,0.58-4.45,1.74-5.59c1.16-1.14,2.86-1.71,5.1-1.71
		c1.52,0,2.75,0.19,3.68,0.57c0.93,0.38,1.6,0.91,2.02,1.6c0.42,0.68,0.61,1.48,0.57,2.39c0,0.57,0.23,0.86,0.68,0.86l7.87,0.06
		c0.46,0,0.72-0.27,0.8-0.8c0.3-2.36-0.08-4.5-1.17-6.44c-1.08-1.94-2.85-3.48-5.3-4.62c-2.45-1.14-5.54-1.71-9.26-1.71
		c-5.02,0-8.96,1.24-11.83,3.71c-2.87,2.47-4.3,6.21-4.3,11.23v8.83c0,3.34,0.63,6.12,1.88,8.32c1.25,2.2,2.99,3.86,5.22,4.96
		c2.22,1.1,4.74,1.65,7.55,1.65c1.71,0,3.17-0.22,4.39-0.66c1.22-0.44,2.25-1.03,3.11-1.77c0.86-0.74,1.55-1.57,2.08-2.48h0.11
		c0.04,0.53,0.08,1.14,0.11,1.82c0.04,0.68,0.11,1.24,0.23,1.65c0.08,0.27,0.17,0.46,0.29,0.57c0.11,0.11,0.29,0.17,0.51,0.17h6.27
		c0.23,0,0.43-0.08,0.6-0.23c0.17-0.15,0.22-0.36,0.14-0.63C408.92,101.58,408.75,100.13,408.7,98.48z"/>
	<path fill="#191027" d="M434.37,66.99c-0.15-0.42-0.46-0.63-0.91-0.63h-10.15c-0.46,0-0.76,0.21-0.91,0.63l-11.86,35.79
		c-0.19,0.61,0.02,0.91,0.63,0.91h8.49c0.49,0,0.8-0.23,0.91-0.68l1.65-5.99h12.29l1.69,6.04c0.11,0.42,0.42,0.63,0.91,0.63h8.55
		c0.57,0,0.78-0.3,0.63-0.91L434.37,66.99z M424.25,89.67l1.97-7.18c0.38-1.37,0.74-2.74,1.08-4.1c0.34-1.37,0.67-2.74,0.97-4.1
		h0.11c0.3,1.33,0.63,2.68,0.97,4.05c0.34,1.37,0.7,2.74,1.08,4.1l2.02,7.24H424.25z"/>
	<path fill="#191027" d="M479.23,66.36h-7.52c-0.49,0-0.74,0.27-0.74,0.8v13.74c0,0.95,0.02,2.06,0.06,3.33
		c0.04,1.27,0.09,2.54,0.17,3.79c0.08,1.25,0.17,2.38,0.29,3.36h-0.17c-0.3-0.91-0.69-1.96-1.17-3.13c-0.48-1.18-1-2.37-1.57-3.59
		c-0.57-1.22-1.12-2.36-1.65-3.42l-7.18-14.31c-0.19-0.38-0.49-0.57-0.91-0.57h-9.97c-0.53,0-0.8,0.27-0.8,0.8v35.74
		c0,0.53,0.26,0.8,0.8,0.8h7.47c0.53,0,0.8-0.27,0.8-0.8v-13c0-1.06,0-2.24,0-3.53c0-1.29-0.02-2.57-0.06-3.85
		c-0.04-1.27-0.09-2.42-0.17-3.45h0.17c0.42,0.95,0.87,2.04,1.37,3.28c0.49,1.24,1,2.48,1.51,3.73c0.51,1.25,1.03,2.39,1.57,3.42
		l6.84,13.62c0.23,0.38,0.53,0.57,0.91,0.57h9.97c0.53,0,0.8-0.27,0.8-0.8V67.16C480.03,66.63,479.76,66.36,479.23,66.36z"/>
</g>
<g>
	<path fill="#191027" d="M170.37,136.43l1.33-2.81c1.87,1.69,5.07,2.91,8.31,2.91c4.35,0,6.23-1.69,6.23-3.89
		c0-6.15-15.26-2.27-15.26-11.62c0-3.89,3.02-7.2,9.64-7.2c2.95,0,6.01,0.79,8.1,2.23l-1.19,2.88c-2.2-1.4-4.68-2.05-6.91-2.05
		c-4.28,0-6.12,1.8-6.12,3.99c0,6.15,15.26,2.3,15.26,11.55c0,3.85-3.09,7.16-9.75,7.16C176.17,139.59,172.39,138.3,170.37,136.43z"
		/>
	<path fill="#191027" d="M207.34,134.2l1.87,2.23c-1.69,2.02-4.32,3.09-7.49,3.09c-6.15,0-10.26-4.07-10.26-9.75
		c0-5.65,4.03-9.72,9.57-9.72c5.22,0,9.28,3.67,9.39,9.36l-15.15,2.95c0.97,2.63,3.35,4.14,6.55,4.14
		C204.06,136.5,205.93,135.74,207.34,134.2z M194.81,129.59v0.36l12.2-2.3c-0.61-2.74-2.88-4.68-5.97-4.68
		C197.4,122.97,194.81,125.6,194.81,129.59z"/>
	<path fill="#191027" d="M231.11,128.33v10.98h-3.45v-10.58c0-3.74-1.87-5.58-5.15-5.58c-3.67,0-6.05,2.2-6.05,6.33v9.82h-3.45
		v-19.07h3.31v2.88c1.4-1.94,3.85-3.06,6.87-3.06C227.84,120.05,231.11,122.72,231.11,128.33z"/>
	<path fill="#191027" d="M234.33,114.33c0-1.26,1.01-2.27,2.34-2.27c1.33,0,2.34,0.97,2.34,2.2c0,1.3-0.97,2.3-2.34,2.3
		C235.34,116.56,234.33,115.59,234.33,114.33z M234.94,120.23h3.45v19.07h-3.45V120.23z"/>
	<path fill="#191027" d="M241.37,129.77c0-5.69,4.21-9.72,9.93-9.72c5.72,0,9.9,4.03,9.9,9.72c0,5.69-4.17,9.75-9.9,9.75
		C245.58,139.52,241.37,135.46,241.37,129.77z M257.71,129.77c0-4.07-2.74-6.69-6.41-6.69c-3.67,0-6.44,2.63-6.44,6.69
		c0,4.07,2.77,6.73,6.44,6.73C254.97,136.5,257.71,133.84,257.71,129.77z"/>
	<path fill="#191027" d="M274.17,120.05v3.35c-0.29-0.04-0.54-0.04-0.79-0.04c-3.71,0-6.01,2.27-6.01,6.44v9.5h-3.45v-19.07h3.31
		v3.2C268.45,121.21,270.82,120.05,274.17,120.05z"/>
	<path fill="#191027" d="M283.38,126.71c0-7.45,5.69-12.88,13.35-12.88c3.89,0,7.27,1.33,9.57,3.92l-2.34,2.27
		c-1.94-2.05-4.32-2.99-7.09-2.99c-5.69,0-9.9,4.1-9.9,9.68c0,5.58,4.21,9.68,9.9,9.68c2.77,0,5.15-0.97,7.09-3.02l2.34,2.27
		c-2.3,2.59-5.69,3.96-9.61,3.96C289.07,139.59,283.38,134.16,283.38,126.71z"/>
	<path fill="#191027" d="M318.89,120.05v3.35c-0.29-0.04-0.54-0.04-0.79-0.04c-3.71,0-6.01,2.27-6.01,6.44v9.5h-3.45v-19.07h3.31
		v3.2C313.17,121.21,315.54,120.05,318.89,120.05z"/>
	<path fill="#191027" d="M335.51,134.2l1.87,2.23c-1.69,2.02-4.32,3.09-7.49,3.09c-6.15,0-10.26-4.07-10.26-9.75
		c0-5.65,4.03-9.72,9.57-9.72c5.22,0,9.28,3.67,9.39,9.36l-15.15,2.95c0.97,2.63,3.35,4.14,6.55,4.14
		C332.24,136.5,334.11,135.74,335.51,134.2z M322.99,129.59v0.36l12.2-2.3c-0.61-2.74-2.88-4.68-5.97-4.68
		C325.58,122.97,322.99,125.6,322.99,129.59z"/>
	<path fill="#191027" d="M359.75,120.23v19.07h-3.31v-3.02c-1.55,2.16-3.99,3.24-6.8,3.24c-5.58,0-9.64-3.92-9.64-9.75
		c0-5.83,4.07-9.72,9.64-9.72c2.7,0,5.07,1.01,6.66,3.06v-2.88H359.75z M356.33,129.77c0-4.07-2.77-6.69-6.41-6.69
		c-3.67,0-6.44,2.63-6.44,6.69c0,4.07,2.77,6.73,6.44,6.73C353.56,136.5,356.33,133.84,356.33,129.77z"/>
	<path fill="#191027" d="M372.99,138.19c-1.04,0.9-2.63,1.33-4.18,1.33c-3.85,0-6.05-2.12-6.05-5.97v-17.49h3.45v4.17h5.47v2.84
		h-5.47v10.33c0,2.05,1.04,3.2,2.99,3.2c1.01,0,1.98-0.32,2.7-0.9L372.99,138.19z"/>
	<path fill="#191027" d="M374.81,114.33c0-1.26,1.01-2.27,2.34-2.27s2.34,0.97,2.34,2.2c0,1.3-0.97,2.3-2.34,2.3
		C375.82,116.56,374.81,115.59,374.81,114.33z M375.42,120.23h3.45v19.07h-3.45V120.23z"/>
	<path fill="#191027" d="M400.92,120.23l-8.35,19.07h-3.53l-8.35-19.07h3.6l6.55,15.29l6.69-15.29H400.92z"/>
	<path fill="#191027" d="M416.31,134.2l1.87,2.23c-1.69,2.02-4.32,3.09-7.49,3.09c-6.15,0-10.26-4.07-10.26-9.75
		c0-5.65,4.03-9.72,9.57-9.72c5.22,0,9.28,3.67,9.39,9.36l-15.15,2.95c0.97,2.63,3.35,4.14,6.55,4.14
		C413.04,136.5,414.91,135.74,416.31,134.2z M403.79,129.59v0.36l12.2-2.3c-0.61-2.74-2.88-4.68-5.97-4.68
		C406.38,122.97,403.79,125.6,403.79,129.59z"/>
</g>
<g>
	<path fill="#F00073" d="M74.39,109.61c4.33,10.45,16.34,15.42,26.79,11.1c6.69-2.77,11.14-8.7,12.34-15.35l16.73-6.93
		c0.32,3.54,0.12,7.06-0.56,10.47c-2.33,11.76-10.29,22.19-22.17,27.11c-18.88,7.82-40.61-1.18-48.43-20.06
		c-7.82-18.88,1.18-40.6,20.06-48.43c15.33-6.35,32.53-1.61,42.65,10.5l21-8.7C127.53,46,97.39,36.06,70.69,47.12
		c-30.18,12.5-44.51,47.1-32.01,77.27s47.1,44.51,77.27,32.01c26.69-11.06,40.99-39.4,35.28-66.68c-0.74-3.57-1.83-7.11-3.27-10.59
		L74.39,109.61z"/>
	<path fill="#F00073" d="M73.14,98.17l31.92-13.22c-5.55-3.86-12.89-4.91-19.58-2.13S74.34,91.52,73.14,98.17z"/>
</g>
</svg>
