<?xml version="1.0" encoding="utf-8"?>
<!-- Generator: Adobe Illustrator 27.5.0, SVG Export Plug-In . SVG Version: 6.00 Build 0)  -->
<svg version="1.1" id="Layer_1" xmlns="http://www.w3.org/2000/svg" xmlns:xlink="http://www.w3.org/1999/xlink" x="0px" y="0px"
	 viewBox="0 0 200 200" style="enable-background:new 0 0 200 200;" xml:space="preserve">
<style type="text/css">
	.st0{fill:#F00073;}
</style>
<g>
	<path class="st0" d="M69.3,112.7c7,17,26.5,25,43.5,18c10.9-4.5,18.1-14.1,20-24.9l27.1-11.2c0.5,5.7,0.2,11.5-0.9,17
		c-3.8,19.1-16.7,36-36,44c-30.6,12.7-65.9-1.9-78.6-32.6S46.4,57.1,77,44.4c24.9-10.3,52.8-2.6,69.2,17l34.1-14.1
		c-24.8-37.8-73.7-54-117-36C14.3,31.6-9,87.8,11.3,136.7s76.4,72.2,125.4,51.9c43.3-17.9,66.5-63.9,57.3-108.2
		c-1.2-5.8-3-11.5-5.3-17.2L69.3,112.7z"/>
	<path class="st0" d="M67.3,94.2l51.8-21.5c-9-6.3-20.9-8-31.8-3.5S69.2,83.4,67.3,94.2z"/>
</g>
</svg>
