<?xml version="1.0" encoding="utf-8"?>
<!-- Generator: Adobe Illustrator 27.5.0, SVG Export Plug-In . SVG Version: 6.00 Build 0)  -->
<svg version="1.1" id="Layer_1" xmlns="http://www.w3.org/2000/svg" xmlns:xlink="http://www.w3.org/1999/xlink" x="0px" y="0px"
	 viewBox="0 0 40 40" style="enable-background:new 0 0 40 40;" xml:space="preserve">
<style type="text/css">
	.st0{fill-rule:evenodd;clip-rule:evenodd;fill:#EC3767;}
	.st1{fill:#EC3767;}
</style>
<g>
	<path class="st0" d="M37.2,8.2c0.4,0.5,0.3,1.3-0.2,1.7L20.2,26.8c-0.2,0.2-0.4,0.3-0.6,0.4l-7,1.8c-0.2,0.1-0.5,0.1-0.7,0
		c-0.2-0.1-0.5-0.2-0.6-0.4c-0.3-0.3-0.5-0.8-0.4-1.3l1.8-7c0.1-0.2,0.2-0.4,0.3-0.6L29.9,2.8c0.1-0.1,0.3-0.3,0.5-0.3
		c0.1-0.1,0.3-0.1,0.5-0.1c0.4,0,0.7,0.1,1,0.4L37,8C37.1,8.1,37.1,8.1,37.2,8.2z M34.1,9l-3.2-3.2L15.3,21.3l-1.1,4.4l4.4-1.1
		L34.1,9z"/>
	<path class="st1" d="M33.9,29.7c0.5-4.3,0.7-8.6,0.5-12.9c0-0.2,0.1-0.4,0.2-0.6l1.8-1.8c0.2-0.2,0.6-0.1,0.6,0.2
		c0.3,5.1,0.2,10.2-0.4,15.3c-0.4,3.7-3.4,6.6-7.1,7c-6.4,0.7-12.9,0.7-19.3,0c-3.7-0.4-6.7-3.3-7.1-7c-0.8-6.5-0.8-13.1,0-19.5
		c0.4-3.7,3.4-6.6,7.1-7c4.8-0.5,9.8-0.7,14.6-0.4c0.3,0,0.5,0.4,0.2,0.6l-1.8,1.8c-0.1,0.1-0.3,0.2-0.5,0.2
		c-4.1-0.1-8.2,0-12.2,0.5c-2.4,0.3-4.4,2.2-4.7,4.6c-0.7,6.3-0.7,12.6,0,18.9c0.3,2.4,2.2,4.3,4.7,4.6c6.1,0.7,12.5,0.7,18.7,0
		C31.6,34.1,33.6,32.1,33.9,29.7z"/>
</g>
</svg>
