<?xml version="1.0" encoding="utf-8"?>
<!-- Generator: Adobe Illustrator 27.5.0, SVG Export Plug-In . SVG Version: 6.00 Build 0)  -->
<svg version="1.1" id="Layer_1" xmlns="http://www.w3.org/2000/svg" xmlns:xlink="http://www.w3.org/1999/xlink" x="0px" y="0px"
	 viewBox="0 0 40 40" style="enable-background:new 0 0 40 40;" xml:space="preserve">
<style type="text/css">
	.st0{fill:#EC3767;}
	.st1{fill-rule:evenodd;clip-rule:evenodd;fill:#EC3767;}
</style>
<g>
	<path class="st0" d="M14.9,25.7c-0.9,0.1-1.5,0.9-1.4,1.8c0.1,0.9,0.9,1.5,1.8,1.4c0.9-0.1,1.5-0.9,1.4-1.8
		C16.6,26.2,15.8,25.6,14.9,25.7z"/>
	<path class="st0" d="M9.4,21.4c-0.1-0.9,0.5-1.7,1.4-1.8c0.9-0.1,1.7,0.5,1.8,1.4c0.1,0.9-0.5,1.7-1.4,1.8
		C10.3,22.9,9.5,22.3,9.4,21.4z"/>
	<path class="st0" d="M13.3,12.6c-0.9,0.1-1.5,0.9-1.4,1.8c0.1,0.9,0.9,1.5,1.8,1.4c0.9-0.1,1.5-0.9,1.4-1.8
		C15,13.1,14.2,12.5,13.3,12.6z"/>
	<path class="st0" d="M26.1,15.6c-0.1-0.9,0.5-1.7,1.4-1.8c0.9-0.1,1.7,0.5,1.8,1.4c0.1,0.9-0.5,1.7-1.4,1.8
		C27,17.1,26.2,16.5,26.1,15.6z"/>
	<path class="st0" d="M20,18.2c-0.9,0.1-1.5,0.9-1.4,1.8c0.1,0.9,0.9,1.5,1.8,1.4c0.9-0.1,1.5-0.9,1.4-1.8
		C21.7,18.7,20.9,18.1,20,18.2z"/>
	<path class="st0" d="M19,11.9c-0.1-0.9,0.5-1.7,1.4-1.8c0.9-0.1,1.7,0.5,1.8,1.4c0.1,0.9-0.5,1.7-1.4,1.8
		C19.9,13.4,19.1,12.8,19,11.9z"/>
	<path class="st1" d="M3.9,19.7C4.1,10.8,11.5,3.8,20.4,4c8.9,0.2,15.9,7.6,15.7,16.5c0,0.6-0.2,1.1-0.6,1.5
		c-0.3,0.4-0.8,0.7-1.2,0.8c-0.8,0.3-1.9,0.5-2.9,0.5c-4.4,0-8.3,3.8-8.5,8.3c-0.1,1.1-0.2,2.1-0.7,3c-0.2,0.4-0.6,0.8-1,1.1
		c-0.5,0.3-1,0.4-1.6,0.4C10.7,35.9,3.7,28.6,3.9,19.7z M20.3,6.5C12.8,6.3,6.6,12.2,6.4,19.7c-0.2,7.5,5.8,13.8,13.3,13.9
		c0.1,0,0.2,0,0.2,0c0,0,0.1-0.1,0.2-0.2c0.2-0.4,0.3-1,0.4-1.9c0.3-5.7,5.2-10.6,11-10.7c0.9,0,1.6-0.1,2-0.3
		c0.1-0.1,0.2-0.1,0.2-0.1C33.8,12.9,27.8,6.6,20.3,6.5z"/>
</g>
</svg>
