<?xml version="1.0" encoding="utf-8"?>
<!-- Generator: Adobe Illustrator 27.5.0, SVG Export Plug-In . SVG Version: 6.00 Build 0)  -->
<svg version="1.1" id="Layer_1" xmlns="http://www.w3.org/2000/svg" xmlns:xlink="http://www.w3.org/1999/xlink" x="0px" y="0px"
	 viewBox="0 0 40 40" style="enable-background:new 0 0 40 40;" xml:space="preserve">
<style type="text/css">
	.st0{fill-rule:evenodd;clip-rule:evenodd;fill:#EC3767;}
</style>
<g>
	<path class="st0" d="M10.5,9.4c0-3,2.4-5.4,5.4-5.4C17.5,4.1,19,4.8,20,6c1-1.2,2.5-1.9,4.1-1.9c3,0,5.4,2.4,5.4,5.4
		c0,1.1-0.3,2.1-0.8,2.9h1.3c2.5,0,4.5,2,4.5,4.5v3.3c0,1.3-0.9,2.4-2.1,2.8c0.2,3,0.1,6-0.4,9c-0.3,1.8-1.8,3.1-3.5,3.3l-1.5,0.2
		c-4.6,0.5-9.2,0.5-13.7,0l-1.5-0.2c-1.8-0.2-3.2-1.6-3.5-3.3c-0.5-3-0.6-6-0.4-9c-1.2-0.3-2.1-1.5-2.1-2.8v-3.3
		c0-2.5,2-4.5,4.5-4.5h1.3C10.8,11.5,10.5,10.5,10.5,9.4z M18.8,9.4c0-1.6-1.3-2.9-2.9-2.9S13,7.8,13,9.4s1.3,2.9,2.9,2.9
		S18.8,11,18.8,9.4z M24.1,12.3c1.6,0,2.9-1.3,2.9-2.9s-1.3-2.9-2.9-2.9s-2.9,1.3-2.9,2.9S22.5,12.3,24.1,12.3z M8,16.8
		c0-1.1,0.9-2.1,2.1-2.1h8.7v5.8H8.4c-0.2,0-0.4-0.2-0.4-0.4V16.8z M21.2,23h8.6c0.2,2.8,0.1,5.7-0.4,8.5c-0.1,0.7-0.7,1.2-1.4,1.3
		L26.6,33c-1.8,0.2-3.6,0.3-5.3,0.4V23z M21.2,20.6h10.3c0.2,0,0.4-0.2,0.4-0.4v-3.3c0-1.1-0.9-2.1-2.1-2.1h-8.7V20.6z M18.8,23
		v10.3c-1.8,0-3.6-0.2-5.3-0.4l-1.5-0.2c-0.7-0.1-1.3-0.6-1.4-1.3c-0.5-2.8-0.6-5.7-0.4-8.5H18.8z"/>
</g>
</svg>
