<?xml version="1.0" encoding="utf-8"?>
<!-- Generator: Adobe Illustrator 27.5.0, SVG Export Plug-In . SVG Version: 6.00 Build 0)  -->
<svg version="1.1" id="Layer_1" xmlns="http://www.w3.org/2000/svg" xmlns:xlink="http://www.w3.org/1999/xlink" x="0px" y="0px"
	 viewBox="0 0 40 40" style="enable-background:new 0 0 40 40;" xml:space="preserve">
<style type="text/css">
	.st0{fill-rule:evenodd;clip-rule:evenodd;fill:#EC3767;}
</style>
<g>
	<path class="st0" d="M31.1,17.5l0,0.4l0,0.4l0,0.4l0,0.4l0,0.4l0,0.4l-0.3,11.7c-0.1,2.8-2.2,5.1-4.9,5.4c-3.9,0.4-7.9,0.4-11.9,0
		c-2.8-0.3-4.9-2.6-4.9-5.4L8.9,20l0-0.4l0-0.4l0-0.4l0-0.4l0-0.4l0-0.4L9.1,7.5c0-0.1,0-0.3,0-0.4l0-0.1l0,0c0.1-1.4,0.9-2.5,2-3.3
		c0.1-0.1,0.2-0.1,0.3-0.2c0.1,0,0.2-0.1,0.3-0.1c0.5-0.3,1.1-0.5,1.8-0.5c4.4-0.4,8.7-0.4,13.1,0c0.6,0.1,1.2,0.2,1.8,0.5
		c0.1,0,0.2,0.1,0.3,0.1c0.1,0.1,0.2,0.1,0.3,0.2c1.1,0.7,1.8,1.9,2,3.2l0,0.1c0,0.1,0,0.3,0,0.4L31.1,17.5z M28.4,7.3l0.3,11.3
		l-0.2,7.8c0,1.8-1.4,3.2-3.1,3.4c-3.5,0.3-7,0.3-10.6,0c-1.7-0.2-3.1-1.6-3.1-3.4l-0.2-7.8l0.3-11.3c0,0,0,0,0-0.1
		c0.1-0.7,0.5-1.2,1-1.6c0.2-0.1,0.4-0.2,0.7-0.2c4.4-0.5,8.9-0.5,13.3,0c0.2,0,0.5,0.1,0.7,0.2C27.9,6,28.3,6.6,28.4,7.3
		C28.4,7.3,28.4,7.3,28.4,7.3z M20,36c1.4,0,2.5-1.1,2.5-2.5c0-1.4-1.1-2.5-2.5-2.5s-2.5,1.1-2.5,2.5C17.5,34.9,18.6,36,20,36z"/>
</g>
</svg>
